<svg xmlns="http://www.w3.org/2000/svg" viewBox="0 0 120 96" width="120" height="96">
  <defs>
    <linearGradient id="cBg" x1="0" y1="0" x2="1" y2="1">
      <stop offset="0" stop-color="#19B9A6"/>
      <stop offset="1" stop-color="#0E7C8C"/>
    </linearGradient>
    <clipPath id="flask">
      <path d="M50 20 L58 20 L58 44 L74 76 Q76 84 67 84 L41 84 Q32 84 34 76 L50 44 Z"/>
    </clipPath>
  </defs>
  <rect width="120" height="96" fill="url(#cBg)"/>
  <!-- molecule hexagon -->
  <g transform="translate(92 30)" stroke="rgba(255,255,255,0.85)" stroke-width="1.6" fill="none">
    <polygon points="0,-11 9.5,-5.5 9.5,5.5 0,11 -9.5,5.5 -9.5,-5.5"/>
    <circle cx="0" cy="-11" r="2.4" fill="#FFFFFF" stroke="none"/>
    <circle cx="9.5" cy="5.5" r="2.4" fill="#FFFFFF" stroke="none"/>
    <circle cx="-9.5" cy="5.5" r="2.4" fill="#FFFFFF" stroke="none"/>
  </g>
  <!-- flask -->
  <g>
    <path d="M50 20 L58 20 L58 44 L74 76 Q76 84 67 84 L41 84 Q32 84 34 76 L50 44 Z" fill="rgba(255,255,255,0.12)" stroke="#FFFFFF" stroke-width="2.2" stroke-linejoin="round"/>
    <g clip-path="url(#flask)">
      <rect x="28" y="62" width="56" height="30" fill="#FFE08A" opacity="0.92"/>
      <circle cx="48" cy="68" r="3" fill="#FFFFFF" opacity="0.7"/>
      <circle cx="60" cy="74" r="2.2" fill="#FFFFFF" opacity="0.7"/>
      <circle cx="54" cy="60" r="2" fill="#FFFFFF" opacity="0.7"/>
    </g>
    <line x1="46" y1="20" x2="62" y2="20" stroke="#FFFFFF" stroke-width="2.4" stroke-linecap="round"/>
  </g>
</svg>
